<?xml version="1.0" encoding="utf-8"?>
<!-- Generator: Adobe Illustrator 28.1.0, SVG Export Plug-In . SVG Version: 6.00 Build 0)  -->
<svg version="1.1" xmlns="http://www.w3.org/2000/svg" xmlns:xlink="http://www.w3.org/1999/xlink" x="0px" y="0px"
	 viewBox="0 0 100 100" style="enable-background:new 0 0 100 100;" xml:space="preserve">
<style type="text/css">
	.st0{fill:#F4AA9B;}
	.st1{fill:none;stroke:#000000;stroke-width:3;stroke-miterlimit:10;}
	.st2{fill:#D1383F;}
	.st3{fill:#ED7D67;}
	.st4{clip-path:url(#SVGID_00000009577827417912645000000014176034459291724942_);}
	.st5{fill:#D4982E;}
	.st6{clip-path:url(#SVGID_00000009577827417912645000000014176034459291724942_);fill:#E8473D;}
	.st7{clip-path:url(#SVGID_00000009577827417912645000000014176034459291724942_);fill:#D4982E;}
	.st8{clip-path:url(#SVGID_00000009577827417912645000000014176034459291724942_);fill:#FFBD4F;}
	.st9{fill:#FFFFFF;}
	.st10{clip-path:url(#SVGID_00000009577827417912645000000014176034459291724942_);fill:#ED7D67;}
	.st11{clip-path:url(#SVGID_00000009577827417912645000000014176034459291724942_);fill:#B87C00;}
	.st12{fill:#E8473D;}
	.st13{fill:#B87C00;}
	.st14{fill:#231815;}
	.st15{fill:none;stroke:#231815;stroke-width:0.5;stroke-linecap:round;stroke-linejoin:round;stroke-miterlimit:10;}
	.st16{fill:#CA3133;stroke:#231815;stroke-width:3;stroke-linecap:round;stroke-linejoin:round;stroke-miterlimit:10;}
	.st17{fill:#D4982E;stroke:#231815;stroke-width:3;stroke-linecap:round;stroke-linejoin:round;stroke-miterlimit:10;}
	.st18{fill:#E8473D;stroke:#231815;stroke-width:3;stroke-linecap:round;stroke-linejoin:round;stroke-miterlimit:10;}
	.st19{fill:#FFBD4F;stroke:#231815;stroke-width:3;stroke-linecap:round;stroke-linejoin:round;stroke-miterlimit:10;}
	.st20{fill:#FFFFFF;stroke:#231815;stroke-width:3;stroke-linecap:round;stroke-linejoin:round;stroke-miterlimit:10;}
	.st21{fill:#ED7D67;stroke:#231815;stroke-width:3;stroke-linecap:round;stroke-linejoin:round;stroke-miterlimit:10;}
	.st22{fill:#B87C00;stroke:#231815;stroke-width:3;stroke-linecap:round;stroke-linejoin:round;stroke-miterlimit:10;}
	.st23{fill:#FFBD4F;stroke:#231815;stroke-width:3;stroke-miterlimit:10;}
	.st24{fill:#D1383F;stroke:#231815;stroke-width:3;stroke-linecap:round;stroke-linejoin:round;stroke-miterlimit:10;}
	.st25{fill:none;stroke:#000000;stroke-width:6;stroke-linecap:round;stroke-linejoin:round;stroke-miterlimit:10;}
	.st26{fill:none;stroke:#000000;stroke-width:8;stroke-linecap:round;stroke-linejoin:round;stroke-miterlimit:10;}
	.st27{fill:none;stroke:#231815;stroke-width:3;stroke-linecap:round;stroke-linejoin:round;stroke-miterlimit:10;}
	.st28{fill:none;stroke:#009FE8;stroke-miterlimit:10;}
	.st29{fill:#009FE8;}
</style>
<g id="圖層_1">
	<g>
		<path class="st24" d="M84.54,60.01c0,0-0.01-0.01-0.01-0.01c-0.46-0.46-0.26-1.22,0.37-1.39c0.01,0,0.01,0,0.02,0
			c9.25-2.48,14.74-11.99,12.26-21.24C94.7,28.11,85.19,22.62,75.94,25.1c-0.01,0-0.01,0-0.02,0c-0.63,0.17-1.19-0.39-1.02-1.02
			c0-0.01,0-0.01,0-0.02C77.39,14.81,71.9,5.3,62.64,2.82C53.39,0.34,43.88,5.83,41.4,15.09c0,0.01,0,0.01,0,0.02
			c-0.17,0.63-0.93,0.83-1.39,0.37c0,0-0.01-0.01-0.01-0.01c-6.77-6.77-17.76-6.77-24.53,0c-6.77,6.77-6.77,17.76,0,24.53
			c0,0,0.01,0.01,0.01,0.01c0.46,0.46,0.25,1.22-0.37,1.39c-0.01,0-0.01,0-0.02,0C5.83,43.88,0.34,53.39,2.82,62.64
			c2.48,9.25,11.99,14.74,21.24,12.26c0.01,0,0.01,0,0.02,0c0.63-0.17,1.19,0.39,1.02,1.02c0,0.01,0,0.01,0,0.02
			c-2.48,9.25,3.01,18.77,12.27,21.25c9.25,2.48,18.77-3.01,21.25-12.27c0-0.01,0-0.01,0-0.02c0.17-0.63,0.93-0.83,1.39-0.37
			c0,0,0.01,0.01,0.01,0.01c6.77,6.77,17.76,6.77,24.53,0C91.31,77.76,91.31,66.78,84.54,60.01z"/>
		<circle class="st23" cx="50" cy="50" r="17.32"/>
	</g>
</g>
<g id="裁切線">
</g>
<g id="備註">
</g>
</svg>
